<?xml version="1.0" encoding="utf-8"?>
<!-- Generator: Adobe Illustrator 24.0.0, SVG Export Plug-In . SVG Version: 6.00 Build 0)  -->
<svg version="1.1" id="logo" xmlns="http://www.w3.org/2000/svg" xmlns:xlink="http://www.w3.org/1999/xlink" x="0px" y="0px"
	 viewBox="0 0 595.28 841.89" style="enable-background:new 0 0 595.28 841.89;" xml:space="preserve">
<style type="text/css">
	.st0{fill:#FFFFFF;}
</style>
<g>
	<g>
		<path class="st0" d="M272.08,239.54c1.52,3.14,1.29,1.86,4.89,7.34c1.96,2.98,5.6,8.52,7.28,15.93
			c2.11,9.28-0.16,17.08-0.86,20.47c-2.66,12.96-14.02,26.47-25.69,26.3c-13.57-0.2-25.14-18.85-25.89-20.1
			c-0.18-0.3-0.32-0.54-0.41-0.7c-1.91-3.26-9.2-16.53-5.51-43.74c1.79-13.2,6.62-23.51,20.19-38.84
			c14.07-15.9,36.09-20.19,36.09-20.19c-3.67,9.18-5.51,13.46-9.18,26.91C269.4,226.13,268.98,233.16,272.08,239.54z"/>
		<path class="st0" d="M333.72,297.13c-7.96,8.1-19.82,15.2-32.28,15.2c-6.24,0-12.85,0-20.19-4.28c0,0,15.69-18.63,11.62-47.1
			c-1.22-8.56-11.01-18.35-13.46-33.03c-3.19-19.12,7.95-27.53,7.95-48.32c0,0-1.22-22.02-14.07-41.59
			c5.74,1,21.65,4.86,35.48,22.02c14.42,17.9,26.3,34.87,34.25,64.84c6.89,25.96,8.65,47.29-3.67,65.45
			C337.83,292.58,335.93,294.89,333.72,297.13z"/>
		<path class="st0" d="M343.04,354.23c-0.19,12.21-7.02,20.93-9.48,23.24c-10.4,9.79-27.3,0.76-45.26,1.22
			c-19.69,0.51-42.21,9.79-51.99-0.61c-7.98-8.48-5.79-20.73-5.51-23.86c1.76-19.02,16.12-30.25,18.04-31.5
			c8.36-5.44,18.72-6.07,37.92-6.73c18.08-0.62,27.27,0.3,35.17,4.59C332.48,326.31,343.28,338.82,343.04,354.23z"/>
		<path class="st0" d="M285.23,411.73c-0.19,4.12,1.76,22.1-12.23,29.97c-9.79,5.51-25.99,4.77-38.54,3.67
			c-7.8-0.69-39.15-10.4-43.43-14.68c-4.18-4.18-7.97-10.35-8.56-18.96c-0.84-12.24,9.44-30.45,25.08-34.25
			c6.34-1.54,11.65-0.25,20.19,1.84c13.11,3.2,15.5,7.68,26.91,8.56c5.89,0.46,13.63-0.79,16.87-2.08c2.9-1.16,3.4-2.24,6.99-1.59
			C284.21,385.24,285.42,407.67,285.23,411.73z"/>
		<path class="st0" d="M391.36,415.4c-1,13.97-10.77,23.12-13.76,25.69c-10.02,8.59-20.99,9.2-42.51,10.09
			c-27.62,1.14-57.19-0.92-53.52-9.48c2.82-6.58,6.2-15.28,6.73-29.36c0.59-15.68-8.52-24.69-1.22-28.75
			c5.51-3.06,12.23,1.22,27.53,1.84c3.55,0.14,12.55,1.67,20.19-3.67c12.23-8.56,11.62-7.95,17.13-8.56
			C367.81,371.43,392.96,392.97,391.36,415.4z"/>
	</g>
	<path class="st0" d="M158.88,191.48c-2.37,1.47-4.87,2.34-7.5,2.59c-3.55,0.45-7.48-0.15-11.77-1.8c-3.31-1.3-6.85-3.23-10.62-5.78
		c-4.69-3.25-10.7-8.24-18.04-14.98c-3.32-3.12-5.77-5.25-7.33-6.4c-1.3-0.98-2.09-2.27-2.35-3.88c-0.26-1.6,0.1-3.06,1.08-4.36
		c0.94-1.34,2.21-2.14,3.84-2.38s3.11,0.11,4.46,1.04c1.13,0.81,3.92,3.23,8.37,7.25c7.25,6.65,12.81,11.3,16.67,13.94
		c2.95,2.03,5.69,3.54,8.23,4.52c2.58,0.94,4.62,1.3,6.15,1.08c2.03-0.23,3.78-1.43,5.24-3.6c1.94-3.03,2.65-6.36,2.11-10
		c-0.58-3.67-2.3-7.67-5.15-12c-2.54-3.95-5.8-7.84-9.78-11.67c-3.24-3.21-6.68-6.12-10.33-8.72c-1.35-0.93-2.15-2.2-2.41-3.81
		c-0.26-1.6,0.1-3.06,1.07-4.36c0.94-1.34,2.2-2.15,3.81-2.41c1.6-0.26,3.08,0.07,4.42,1.01c3.73,2.69,7.61,5.96,11.64,9.83
		c4.59,4.4,8.43,8.95,11.5,13.65c3.79,5.78,6.08,11.36,6.88,16.72c0.48,3.08,0.42,6.16-0.16,9.24c-0.67,3.16-1.93,6.21-3.79,9.16
		l-0.06,0.07c-0.73,1.04-1.49,1.98-2.27,2.81C161.52,189.6,160.22,190.68,158.88,191.48z"/>
	<path class="st0" d="M200.49,147.98c-0.67-1.07-1.74-2.91-3.23-5.52c-3.83-6.59-6.84-11.08-9.03-13.46
		c-2.55-2.72-4.8-4.07-6.77-4.05c-0.33,1.06-0.45,2.51-0.36,4.36c0,2.62,0.52,6,1.56,10.16c1.84,7.27,3.65,12.54,5.41,15.82
		c0.77,1.57,0.92,3.21,0.46,4.91c-0.46,1.7-1.43,3.01-2.9,3.93l-0.31,0.19c-1.61,0.93-3.29,1.15-5.05,0.66
		c-1.76-0.49-3.1-1.55-4.04-3.16c-5.51-9.29-14.01-23.04-25.51-41.26c-2.62-4.09-5.15-8.1-7.6-12.02c-0.98-1.58-1.27-3.28-0.84-5.1
		c0.42-1.82,1.42-3.22,3-4.2c1.58-0.98,3.28-1.26,5.1-0.84c1.82,0.42,3.22,1.42,4.2,3c2.44,3.92,4.96,7.9,7.55,11.94
		c2.64,4.23,4.63,7.37,5.98,9.42c0.38-1.65,0.88-3.13,1.48-4.42c2.08-3.91,5.32-6.15,9.72-6.7c6.74-0.88,13.02,1.89,18.85,8.29
		c2.85,3.1,6.45,8.36,10.78,15.76c1.36,2.41,2.35,4.12,2.99,5.14c0.98,1.58,1.27,3.28,0.84,5.1c-0.42,1.82-1.42,3.22-3,4.2
		s-3.28,1.27-5.1,0.84C202.88,150.56,201.48,149.56,200.49,147.98z"/>
	<path class="st0" d="M230.71,120.19c-1.81-1.65-4.13-6.09-6.94-13.32c-0.1-0.34-0.27-0.83-0.49-1.45c-0.22-0.62-0.4-1.07-0.55-1.34
		c-4.39-10.58-7.57-19.12-9.53-25.61c-0.49-1.61-0.33-3.16,0.47-4.66c0.8-1.5,2.01-2.49,3.61-2.97c1.67-0.5,3.25-0.35,4.74,0.45
		c1.5,0.8,2.49,2.01,2.97,3.61c1.95,6.43,4.95,14.61,9.02,24.54l1.2,3.02l2.29,5.7c0.73,1.6,1.31,2.68,1.73,3.24
		c1.16,1.15,1.76,2.57,1.8,4.25c0.04,1.68-0.52,3.1-1.67,4.27c-0.82,0.81-1.72,1.37-2.69,1.66
		C234.38,122.28,232.39,121.82,230.71,120.19z M235.14,133.9l-0.31-1.03c-0.49-1.61-0.33-3.16,0.47-4.66s2.01-2.49,3.61-2.97
		c1.61-0.49,3.16-0.33,4.66,0.47s2.49,2.01,2.97,3.61l0.31,1.03c0.49,1.61,0.33,3.16-0.47,4.66s-2.01,2.49-3.61,2.97
		c-1.61,0.49-3.16,0.33-4.66-0.47C236.61,136.71,235.62,135.51,235.14,133.9z"/>
	<path class="st0" d="M355.15,135.15c0.04,1.6-0.5,3.01-1.63,4.22s-2.53,1.86-4.2,1.95c-0.5,0.02-0.95-0.01-1.36-0.09
		c-1.35-0.27-2.49-0.93-3.41-1.97c-0.92-1.04-1.39-2.27-1.42-3.68c-0.29-6.48,1.02-16.6,3.91-30.34c0.42-1.81,1-4.51,1.72-8.1
		c-0.24,0.26-0.65,0.64-1.24,1.13c-2.75,2.39-4.72,4.08-5.94,5.09c-1.21,1.01-3.07,2.33-5.57,3.97s-4.88,2.87-7.13,3.71
		c-0.28,0.19-0.62,0.33-1.01,0.44c-0.91,0.25-1.86,0.27-2.86,0.07c-0.71-0.14-1.47-0.45-2.29-0.92l-0.95-0.74
		c-4.24-4.77-8.34-10.4-12.3-16.89c-0.04,0.18-0.11,0.45-0.21,0.83c-0.11,0.38-0.18,0.65-0.21,0.83
		c-3.6,15.74-5.69,26.12-6.27,31.14c-0.27,1.66-1.08,3-2.42,4.01s-2.83,1.39-4.49,1.12l-0.35-0.07c-1.53-0.31-2.75-1.09-3.66-2.34
		s-1.26-2.69-1.06-4.3c0.77-5.66,2.98-16.48,6.63-32.45c1.38-5.35,2.6-10.49,3.66-15.42c-0.43-1.49-0.27-2.98,0.48-4.45
		c0.75-1.47,1.86-2.46,3.3-2.96c1.04-0.28,2.09-0.37,3.18-0.28l0.62,0.12c1.47,0.3,2.65,1.04,3.54,2.23s1.31,2.54,1.25,4.06
		c3.63,8.14,8.39,15.92,14.3,23.35c2.9-1.62,6.82-4.69,11.77-9.2c5.89-5.24,10.7-8.89,14.42-10.96l0.62-0.33
		c0.86-0.32,1.75-0.47,2.67-0.47c1.42,0.23,2.65,0.81,3.69,1.75c0.5,0.53,0.89,1.04,1.16,1.52c0.59,1.04,0.83,2.13,0.72,3.27
		c-0.38,5.25-1.7,13.15-3.95,23.72c-0.08,0.41-0.28,1.38-0.59,2.91c-0.31,1.53-0.51,2.53-0.6,3c-0.1,0.47-0.28,1.4-0.56,2.78
		s-0.46,2.36-0.54,2.92c-0.08,0.57-0.23,1.45-0.44,2.66c-0.21,1.21-0.36,2.15-0.43,2.81c-0.07,0.66-0.16,1.53-0.25,2.61
		c-0.1,1.08-0.17,2-0.23,2.75s-0.09,1.57-0.08,2.46C355.12,133.51,355.13,134.35,355.15,135.15z"/>
	<path class="st0" d="M408.24,146.04c-2.26,6.55-3.31,11.67-3.13,15.34c0.1,1.81-0.48,3.42-1.75,4.83s-2.83,2.15-4.7,2.22
		c-1.28,0.14-2.53-0.16-3.76-0.9c-2.06-1.24-3.15-3.08-3.28-5.54c-0.11-2.73,0.15-5.72,0.78-8.98c-3.4,1.81-6.74,2.77-10.04,2.89
		c-3.9,0.31-7.57-0.56-11.02-2.64c-2.47-1.48-4.76-3.67-6.88-6.55c-4.99-6.71-6.39-13.54-4.18-20.47
		c1.64-5.52,5.54-10.67,11.7-15.44c3.87-3.06,7.63-5.24,11.29-6.55c3.82-1.34,7.44-1.72,10.87-1.13c4.26,0.6,8.24,2.65,11.96,6.14
		c2.63,2.49,5.21,5.65,7.74,9.49c0.68,0.97,1.06,1.97,1.14,3c1.63,2.17,1.8,4.51,0.5,7.02
		C412.58,134.51,410.17,140.26,408.24,146.04z M393.31,135.59c3.35-3.24,6.22-6.73,8.61-10.47c-2.87-3.96-5.25-6.52-7.15-7.66
		c-0.92-0.56-1.82-0.88-2.67-0.98c-2.97-0.53-6.9,1.1-11.77,4.9c-4.02,3.19-6.41,6.12-7.19,8.81c-0.77,2.69-0.07,5.53,2.12,8.52
		c2.02,2.69,4.11,3.94,6.25,3.76C384.88,142.32,388.82,140.03,393.31,135.59z"/>
	<path class="st0" d="M401.56,173.92c-1.05-1.24-1.52-2.68-1.43-4.33c0.09-1.65,0.76-3.04,2.01-4.17l30.03-25.39
		c1.28-1.08,2.77-1.56,4.46-1.42s3.08,0.85,4.16,2.14c1.12,1.33,1.61,2.84,1.47,4.53c-0.14,1.69-0.85,3.08-2.14,4.16l-0.76,0.64
		c0.25,0.1,0.45,0.17,0.62,0.18c2.87,1.26,5.15,3.26,6.84,6c1.27,2.06,2.16,5.2,2.66,9.42c0.19,1.33,0.08,2.84-0.31,4.51
		c0.08,0.09,0.16,0.1,0.25,0.02c4.8,0.66,8.57,3.12,11.32,7.4c1.84,2.45,2.62,5.33,2.34,8.63c-0.2,2.37-1.15,4.82-2.85,7.36
		c-1.75,2.58-4.9,5.87-9.45,9.87c-3.31,2.96-5.31,4.92-5.98,5.89c-0.93,1.41-2.23,2.31-3.9,2.71c-1.67,0.39-3.19,0.11-4.56-0.86
		c-0.36-0.24-0.8-0.66-1.3-1.26c-0.85-1.01-1.33-2.2-1.42-3.57c-0.1-1.37,0.22-2.6,0.95-3.69c1.41-2.05,4.09-4.83,8.04-8.33
		c3.91-3.46,6.38-5.98,7.4-7.56c0.53-0.76,0.82-1.36,0.85-1.78c0.01-0.17-0.06-0.35-0.21-0.53c-0.83-1.26-1.8-1.94-2.9-2.03
		c-2.14-0.39-5.27,0.69-9.4,3.24c-2.07,1.27-5.61,3.92-10.63,7.92c-1.28,1-2.73,1.46-4.36,1.39c-1.63-0.07-3-0.71-4.09-1.91
		c-1.14-1.16-1.69-2.56-1.66-4.19c0.03-1.64,0.61-3.05,1.73-4.23c1.63-1.69,4.38-4.02,8.25-6.97c2.44-1.67,4.69-3.53,6.76-5.6
		c2.07-2.06,3.04-3.86,2.91-5.41c-0.18-2.91-0.81-4.58-1.88-5.01c-1.93-0.8-5.31,0.05-10.11,2.54c-4.49,2.31-8.25,4.74-11.28,7.29
		l-3.78,3.2c-1.28,1.08-2.76,1.57-4.43,1.45c-1.67-0.12-3.05-0.82-4.13-2.1L401.56,173.92z"/>
	<path class="st0" d="M439.24,217.29c2.5-2.96,6.31-5.92,11.44-8.86s9.94-5.3,14.43-7.08c3.85-1.71,6.91-3.17,9.19-4.39
		c1.32-0.71,2.73-0.83,4.24-0.37c1.5,0.46,2.61,1.35,3.31,2.67c0.73,1.38,0.88,2.8,0.43,4.26c-0.44,1.46-1.36,2.56-2.73,3.29
		c-1.06,0.57-2.72,1.38-4.97,2.45c-2.25,1.06-3.88,1.87-4.89,2.4c-1.11,0.59-3.09,1.56-5.94,2.91s-5.06,2.43-6.64,3.23
		c-1.58,0.81-3.3,1.82-5.15,3.05c-1.86,1.23-3.25,2.39-4.16,3.49c-0.99,1.21-2.26,1.88-3.81,2.03s-2.93-0.27-4.14-1.26
		c-0.61-0.63-1.04-1.18-1.29-1.66C437.4,221.3,437.63,219.24,439.24,217.29z M485.47,191.32c1.09-2.55,3.06-3.7,5.91-3.46
		c1.09-0.51,2.26-0.64,3.51-0.39s2.27,0.85,3.05,1.79c0.97,1.18,1.4,2.53,1.29,4.05s-0.75,2.76-1.94,3.73
		c-2.71,2.19-5.57,2.7-8.58,1.51c-1.22-0.51-2.22-1.36-3.01-2.58C484.95,194.68,484.87,193.13,485.47,191.32z"/>
	<g>
		<path class="st0" d="M186.14,512.24c-1.56-0.76-3-1.76-4.32-3c-1.48-1.44-2.62-2.86-3.42-4.26c-1.04-1.76-1.78-3.92-2.22-6.48
			c-0.4-2.56-0.52-4.98-0.36-7.26c0.16-2.52,0.6-4.92,1.32-7.2c0.84-2.48,1.92-4.54,3.24-6.18h0.06c1.72-1.92,3.86-3.32,6.42-4.2
			c2.16-0.76,4.58-1.18,7.26-1.26c4.44-0.2,8.92,0.5,13.44,2.1c0.96,0.32,1.65,0.94,2.07,1.86c0.42,0.92,0.47,1.88,0.15,2.88
			c-0.32,0.96-0.94,1.66-1.86,2.1s-1.86,0.5-2.82,0.18c-1.28-0.44-2.98-0.88-5.1-1.32c-2.2-0.32-4.08-0.46-5.64-0.42
			c-3.84,0.08-6.64,1.08-8.4,3c-1.52,1.8-2.42,4.78-2.7,8.94c-0.16,1.68-0.1,3.52,0.18,5.52c0.44,1.92,0.88,3.24,1.32,3.96
			c1.16,1.92,2.76,3.4,4.8,4.44c1.92,1.08,4.06,1.58,6.42,1.5c2.4-0.08,4.52-0.62,6.36-1.62c2-1.08,3.56-2.6,4.68-4.56
			c0.52-0.92,1.26-1.52,2.22-1.8s1.9-0.16,2.82,0.36c0.92,0.52,1.52,1.27,1.8,2.25s0.16,1.91-0.36,2.79
			c-0.84,1.52-1.96,2.98-3.36,4.38c-1.32,1.2-2.72,2.24-4.2,3.12c-3.12,1.6-6.42,2.44-9.9,2.52h-0.24
			C192.4,514.58,189.18,513.8,186.14,512.24z"/>
		<path class="st0" d="M220.64,511.94c-1.68-1.36-3.08-3.12-4.2-5.28c-1.04-2.04-1.74-4.2-2.1-6.48c-0.48-2.72-0.46-5.64,0.06-8.76
			c0.48-3.08,1.44-5.9,2.88-8.46c3.16-5.72,7.7-9.3,13.62-10.74c0.84-0.44,1.6-0.64,2.28-0.6c2.8,0.16,5.46,0.86,7.98,2.1
			c2.24,1.2,4.2,2.84,5.88,4.92c3.08,3.76,4.78,8.38,5.1,13.86c0.32,5.44-0.9,10.26-3.66,14.46c-1.44,2.24-3.28,4.1-5.52,5.58
			c-2.44,1.6-5.04,2.6-7.8,3h-0.06c-0.76,0.12-1.86,0.18-3.3,0.18C227.28,515.72,223.56,514.46,220.64,511.94z M233.24,479.3
			c-2.2,0.48-4.04,1.32-5.52,2.52c-1.56,1.2-2.88,2.76-3.96,4.68c-1.08,2.08-1.76,4.14-2.04,6.18c-0.44,2.12-0.46,4.22-0.06,6.3
			c0.16,1.32,0.62,2.72,1.38,4.2c0.64,1.36,1.44,2.38,2.4,3.06c2.12,1.8,4.98,2.46,8.58,1.98c1.88-0.32,3.5-0.94,4.86-1.86
			c1.28-0.8,2.4-1.94,3.36-3.42c1-1.52,1.66-3.08,1.98-4.68c0.4-1.72,0.58-3.52,0.54-5.4c-0.2-3.84-1.34-7.02-3.42-9.54
			c-1.04-1.28-2.24-2.28-3.6-3c-1.16-0.6-2.44-1-3.84-1.2L233.24,479.3z"/>
		<path class="st0" d="M262.58,512.24c-1.56-0.76-3-1.76-4.32-3c-1.48-1.44-2.62-2.86-3.42-4.26c-1.04-1.76-1.78-3.92-2.22-6.48
			c-0.4-2.56-0.52-4.98-0.36-7.26c0.16-2.52,0.6-4.92,1.32-7.2c0.84-2.48,1.92-4.54,3.24-6.18h0.06c1.72-1.92,3.86-3.32,6.42-4.2
			c2.16-0.76,4.58-1.18,7.26-1.26c4.44-0.2,8.92,0.5,13.44,2.1c0.96,0.32,1.65,0.94,2.07,1.86c0.42,0.92,0.47,1.88,0.15,2.88
			c-0.32,0.96-0.94,1.66-1.86,2.1c-0.92,0.44-1.86,0.5-2.82,0.18c-1.28-0.44-2.98-0.88-5.1-1.32c-2.2-0.32-4.08-0.46-5.64-0.42
			c-3.84,0.08-6.64,1.08-8.4,3c-1.52,1.8-2.42,4.78-2.7,8.94c-0.16,1.68-0.1,3.52,0.18,5.52c0.44,1.92,0.88,3.24,1.32,3.96
			c1.16,1.92,2.76,3.4,4.8,4.44c1.92,1.08,4.06,1.58,6.42,1.5c2.4-0.08,4.52-0.62,6.36-1.62c2-1.08,3.56-2.6,4.68-4.56
			c0.52-0.92,1.26-1.52,2.22-1.8s1.9-0.16,2.82,0.36s1.52,1.27,1.8,2.25s0.16,1.91-0.36,2.79c-0.84,1.52-1.96,2.98-3.36,4.38
			c-1.32,1.2-2.72,2.24-4.2,3.12c-3.12,1.6-6.42,2.44-9.9,2.52h-0.24C268.84,514.58,265.62,513.8,262.58,512.24z"/>
		<path class="st0" d="M324.74,507.08c0.96,0,1.78,0.34,2.46,1.02s1.02,1.52,1.02,2.52s-0.34,1.84-1.02,2.52s-1.5,1.02-2.46,1.02
			c-1.72,0-5.38,0.14-10.98,0.42c-4.88,0.24-8.6,0.36-11.16,0.36c-3.44,0-6.48-0.18-9.12-0.54c-0.96-0.08-1.74-0.51-2.34-1.29
			c-0.6-0.78-0.84-1.65-0.72-2.61s0.57-1.75,1.35-2.37s1.65-0.85,2.61-0.69c3.12,0.4,6.8,0.54,11.04,0.42
			c-0.6-3.56-0.78-9.24-0.54-17.04c0.16-4.6,0.2-7.94,0.12-10.02c-1.24,0.04-3.14,0.06-5.7,0.06c-1,0-1.84-0.35-2.52-1.05
			c-0.68-0.7-1.02-1.53-1.02-2.49s0.34-1.79,1.02-2.49c0.68-0.7,1.52-1.05,2.52-1.05c4.16,0,7.22-0.06,9.18-0.18
			c3-0.16,5.94-0.58,8.82-1.26c0.96-0.24,1.86-0.1,2.7,0.42c0.84,0.52,1.36,1.24,1.56,2.16c0.24,0.96,0.1,1.85-0.42,2.67
			c-0.52,0.82-1.26,1.35-2.22,1.59c-2.12,0.52-4.4,0.92-6.84,1.2c0.08,2.4,0.04,5.98-0.12,10.74c-0.16,4.36-0.2,7.62-0.12,9.78
			c0.04,2.08,0.28,4.3,0.72,6.66c0.12,0,0.26-0.01,0.42-0.03s0.3-0.03,0.42-0.03C319.2,507.22,322.98,507.08,324.74,507.08z"/>
		<path class="st0" d="M364.52,481.76c0.24,4.36,0.27,9.31,0.09,14.85s-0.73,10.41-1.65,14.61c-0.32,1.28-1.06,2.16-2.22,2.64
			c-0.52,0.2-1,0.3-1.44,0.3c-0.72,0-1.38-0.18-1.98-0.54c-2.6-1.52-5.48-3.64-8.64-6.36c-2.84-2.4-5.48-5.04-7.92-7.92
			c-1.88-2.2-3.54-4.36-4.98-6.48c-0.08,2.08-0.08,4.08,0,6c0.28,4.68,0.66,7.84,1.14,9.48c0.28,1,0.17,1.95-0.33,2.85
			c-0.5,0.9-1.23,1.49-2.19,1.77c-0.48,0.08-0.84,0.12-1.08,0.12c-0.84,0-1.59-0.24-2.25-0.72c-0.66-0.48-1.11-1.12-1.35-1.92
			c-1.24-4.4-1.68-11.32-1.32-20.76c0.16-5.52,0.12-9.34-0.12-11.46c-0.08-1.04,0.2-1.96,0.84-2.76c0.64-0.8,1.46-1.26,2.46-1.38
			c0.92-0.08,1.76,0.13,2.52,0.63s1.24,1.19,1.44,2.07c0.24,0.24,0.46,0.6,0.66,1.08c2.04,5.52,5.44,11.06,10.2,16.62
			c2.36,2.68,4.76,5.06,7.2,7.14c1.28,1.12,2.28,1.94,3,2.46c0.52-4.48,0.66-11.88,0.42-22.2c0-0.72-0.02-1.82-0.06-3.3
			c-0.04-1.48-0.06-2.6-0.06-3.36c0-0.04-0.01-0.06-0.03-0.06s-0.03-0.02-0.03-0.06c0.08-0.88,0.49-1.65,1.23-2.31
			s1.59-0.99,2.55-0.99c1,0,1.87,0.36,2.61,1.08s1.11,1.56,1.11,2.52C364.34,476.4,364.4,478.52,364.52,481.76z"/>
		<path class="st0" d="M405.62,508.46c0.52,0.92,0.64,1.89,0.36,2.91c-0.28,1.02-0.9,1.77-1.86,2.25c-0.44,0.28-0.96,0.42-1.56,0.42
			c-1.56,0.08-2.74-0.54-3.54-1.86c-1.36-2.6-2.6-5.76-3.72-9.48c-5.68-1.64-11.78-2.32-18.3-2.04c-2.12,3.84-3.76,7.58-4.92,11.22
			c-0.32,1-0.94,1.74-1.86,2.22c-0.92,0.48-1.88,0.58-2.88,0.3c-1-0.32-1.74-0.95-2.22-1.89s-0.56-1.91-0.24-2.91
			c1.84-5.88,4.8-11.94,8.88-18.18c2.28-3.52,6.14-8.8,11.58-15.84c0.16-0.2,0.32-0.4,0.48-0.6s0.34-0.42,0.54-0.66
			s0.36-0.44,0.48-0.6c0.76-1.04,1.82-1.52,3.18-1.44c1.2,0,2.2,0.58,3,1.74c1.12,1.76,2.19,3.89,3.21,6.39s1.77,4.54,2.25,6.12
			s1.16,3.97,2.04,7.17C402.44,500.9,404.14,505.82,405.62,508.46z M381.68,493.1c1.2,0.04,3.04,0.18,5.52,0.42
			c2.52,0.32,4.42,0.6,5.7,0.84c-1.44-5-2.68-8.78-3.72-11.34C386.06,486.98,383.56,490.34,381.68,493.1z"/>
	</g>
</g>
</svg>
